<svg xmlns="http://www.w3.org/2000/svg" version="1.1" width="320" height="320"><path d="M142.67949192 150L160 160L142.67949192 170L142.67949192 270L125.35898385 280L125.35898385 300L21.43593539 240L21.43593539 80L56.07695155 60L73.39745962 70L73.39745962 90L160 140L160 160Z" fill="#ADFEB8"/><path d="M142.67949192 170L160 160L177.32050808 170L263.92304845 120L281.24355653 130L298.56406461 120L298.56406461 240L160 320L125.35898385 300L125.35898385 280L142.67949192 270Z" fill="#B0BAFD"/><path d="M142.67949192 110L142.67949192 10L160 0L281.24355653 70L298.56406461 80L298.56406461 120L281.24355653 130L263.92304845 120L177.32050808 170L160 160L160 140L73.39745962 90L73.39745962 70L56.07695155 60L142.67949192 10Z" fill="#FFA49D"/><path d="M142.67949192 170L160 180L160 320L108.03847577 290L108.03847577 190L90.7179677 180L73.39745962 170L73.39745962 210L108.03847577 230L108.03847577 250L56.07695155 220L56.07695155 120L38.75644347 110L38.75644347 230L108.03847577 270L108.03847577 290L21.43593539 240L21.43593539 80L142.67949192 150L142.67949192 170L125.35898385 160L73.39745962 130L73.39745962 150L108.03847577 170L125.35898385 180L125.35898385 280L142.67949192 290ZM142.67949192 110L177.32050808 130L160 140L73.39745962 90L73.39745962 70ZM142.67949192 70L194.64101615 100L194.64101615 120L125.35898385 80L125.35898385 60ZM160 140L177.32050808 150L177.32050808 170L160 160ZM160 20L177.32050808 30L160 40ZM177.32050808 250L211.96152423 230L211.96152423 270ZM194.64101615 40L229.2820323 60L194.64101615 80ZM211.96152423 190L246.60254038 170L246.60254038 250L229.2820323 240L229.2820323 200ZM246.60254038 70L263.92304845 80L246.60254038 90ZM246.60254038 130L281.24355653 110L281.24355653 230L263.92304845 220L263.92304845 140Z" fill="rgba(0,0,0,0.15)"/><path d="M142.67949192 150L160 140L160 160L142.67949192 170ZM142.67949192 30L160 20L160 40L125.35898385 60L125.35898385 80L90.7179677 60ZM160 180L177.32050808 170L177.32050808 290L211.96152423 270L211.96152423 230L177.32050808 250L177.32050808 230L229.2820323 200L229.2820323 260L246.60254038 250L246.60254038 170L177.32050808 210L177.32050808 190L263.92304845 140L263.92304845 240L281.24355653 230L281.24355653 110L177.32050808 170L177.32050808 150L298.56406461 80L298.56406461 240L160 320ZM160 60L194.64101615 40L194.64101615 80ZM194.64101615 100L246.60254038 70L246.60254038 90L194.64101615 120ZM125.35898385 180L142.67949192 170L142.67949192 270L125.35898385 280ZM90.7179677 180L108.03847577 190L73.39745962 210L73.39745962 170ZM73.39745962 130L90.7179677 140L73.39745962 150ZM56.07695155 80L73.39745962 70L73.39745962 90ZM38.75644347 150L38.75644347 110L56.07695155 120L56.07695155 220L38.75644347 230Z" fill="rgba(0,0,0,0.4)"/></svg>