<?xml version="1.0" encoding="UTF-8"?>
<svg xmlns="http://www.w3.org/2000/svg" xmlns:xlink="http://www.w3.org/1999/xlink" width="32px" height="32px" viewBox="0 0 32 32" version="1.1">
<g id="surface1">
<path style=" stroke:none;fill-rule:nonzero;fill:rgb(67.843137%,99.607843%,72.156863%);fill-opacity:1;" d="M 14.269531 15 L 16 16 L 14.269531 17 L 14.269531 27 L 12.535156 28 L 12.535156 30 L 2.144531 24 L 2.144531 8 L 5.609375 6 L 7.339844 7 L 7.339844 9 L 16 14 L 16 16 Z M 14.269531 15 "/>
<path style=" stroke:none;fill-rule:nonzero;fill:rgb(69.019608%,72.941176%,99.215686%);fill-opacity:1;" d="M 14.269531 17 L 16 16 L 17.730469 17 L 26.390625 12 L 28.125 13 L 29.855469 12 L 29.855469 24 L 16 32 L 12.535156 30 L 12.535156 28 L 14.269531 27 Z M 14.269531 17 "/>
<path style=" stroke:none;fill-rule:nonzero;fill:rgb(100%,64.313725%,61.568627%);fill-opacity:1;" d="M 14.269531 11 L 14.269531 1 L 16 0 L 28.125 7 L 29.855469 8 L 29.855469 12 L 28.125 13 L 26.390625 12 L 17.730469 17 L 16 16 L 16 14 L 7.339844 9 L 7.339844 7 L 5.609375 6 L 14.269531 1 Z M 14.269531 11 "/>
<path style=" stroke:none;fill-rule:nonzero;fill:rgb(0%,0%,0%);fill-opacity:0.14902;" d="M 14.269531 17 L 16 18 L 16 32 L 10.804688 29 L 10.804688 19 L 9.070312 18 L 7.339844 17 L 7.339844 21 L 10.804688 23 L 10.804688 25 L 5.609375 22 L 5.609375 12 L 3.875 11 L 3.875 23 L 10.804688 27 L 10.804688 29 L 2.144531 24 L 2.144531 8 L 14.269531 15 L 14.269531 17 L 12.535156 16 L 7.339844 13 L 7.339844 15 L 10.804688 17 L 12.535156 18 L 12.535156 28 L 14.269531 29 Z M 14.269531 11 L 17.730469 13 L 16 14 L 7.339844 9 L 7.339844 7 Z M 14.269531 7 L 19.464844 10 L 19.464844 12 L 12.535156 8 L 12.535156 6 Z M 16 14 L 17.730469 15 L 17.730469 17 L 16 16 Z M 16 2 L 17.730469 3 L 16 4 Z M 17.730469 25 L 21.195312 23 L 21.195312 27 Z M 19.464844 4 L 22.929688 6 L 19.464844 8 Z M 21.195312 19 L 24.660156 17 L 24.660156 25 L 22.929688 24 L 22.929688 20 Z M 24.660156 7 L 26.390625 8 L 24.660156 9 Z M 24.660156 13 L 28.125 11 L 28.125 23 L 26.390625 22 L 26.390625 14 Z M 24.660156 13 "/>
<path style=" stroke:none;fill-rule:nonzero;fill:rgb(0%,0%,0%);fill-opacity:0.4;" d="M 14.269531 15 L 16 14 L 16 16 L 14.269531 17 Z M 14.269531 3 L 16 2 L 16 4 L 12.535156 6 L 12.535156 8 L 9.070312 6 Z M 16 18 L 17.730469 17 L 17.730469 29 L 21.195312 27 L 21.195312 23 L 17.730469 25 L 17.730469 23 L 22.929688 20 L 22.929688 26 L 24.660156 25 L 24.660156 17 L 17.730469 21 L 17.730469 19 L 26.390625 14 L 26.390625 24 L 28.125 23 L 28.125 11 L 17.730469 17 L 17.730469 15 L 29.855469 8 L 29.855469 24 L 16 32 Z M 16 6 L 19.464844 4 L 19.464844 8 Z M 19.464844 10 L 24.660156 7 L 24.660156 9 L 19.464844 12 Z M 12.535156 18 L 14.269531 17 L 14.269531 27 L 12.535156 28 Z M 9.070312 18 L 10.804688 19 L 7.339844 21 L 7.339844 17 Z M 7.339844 13 L 9.070312 14 L 7.339844 15 Z M 5.609375 8 L 7.339844 7 L 7.339844 9 Z M 3.875 15 L 3.875 11 L 5.609375 12 L 5.609375 22 L 3.875 23 Z M 3.875 15 "/>
</g>
</svg>
