<?xml version="1.0" encoding="UTF-8"?>
<svg xmlns="http://www.w3.org/2000/svg" xmlns:xlink="http://www.w3.org/1999/xlink" width="32px" height="32px" viewBox="0 0 32 32" version="1.1">
<g id="surface1">
<path style=" stroke:none;fill-rule:nonzero;fill:rgb(100%,64.313725%,61.568627%);fill-opacity:1;" d="M 14.269531 15 L 14.269531 1 L 16 0 L 28.125 7 L 29.855469 8 L 29.855469 24 L 26.390625 26 L 24.660156 25 L 24.660156 27 L 21.195312 29 L 19.464844 28 L 19.464844 30 L 16 32 L 2.144531 24 L 2.144531 8 L 5.609375 6 L 7.339844 7 L 7.339844 5 L 10.804688 3 L 12.535156 4 L 12.535156 2 L 14.269531 1 Z M 14.269531 15 "/>
<path style=" stroke:none;fill-rule:nonzero;fill:rgb(0%,0%,0%);fill-opacity:0.14902;" d="M 14.269531 15 L 16 16 L 16 32 L 2.144531 24 L 2.144531 8 L 14.269531 15 L 14.269531 17 L 12.535156 16 L 12.535156 26 L 3.875 21 L 3.875 19 L 5.609375 20 L 10.804688 23 L 10.804688 15 L 9.070312 14 L 9.070312 20 L 7.339844 19 L 3.875 17 L 3.875 15 L 7.339844 17 L 7.339844 13 L 3.875 11 L 3.875 23 L 14.269531 29 Z M 14.269531 9 L 19.464844 12 L 21.195312 13 L 21.195312 29 L 19.464844 28 L 19.464844 14 L 17.730469 13 L 7.339844 7 L 7.339844 5 Z M 14.269531 3 L 24.660156 9 L 26.390625 10 L 26.390625 26 L 24.660156 25 L 24.660156 11 L 22.929688 10 L 12.535156 4 L 12.535156 2 Z M 14.269531 3 "/>
<path style=" stroke:none;fill-rule:nonzero;fill:rgb(0%,0%,0%);fill-opacity:0.4;" d="M 16 16 L 19.464844 14 L 19.464844 30 L 16 32 Z M 21.195312 15 L 21.195312 13 L 24.660156 11 L 24.660156 27 L 21.195312 29 Z M 26.390625 14 L 26.390625 10 L 29.855469 8 L 29.855469 24 L 26.390625 26 Z M 12.535156 16 L 14.269531 17 L 14.269531 25 L 12.535156 26 Z M 9.070312 14 L 10.804688 15 L 10.804688 19 L 9.070312 20 Z M 5.609375 12 L 7.339844 13 L 3.875 15 L 3.875 11 Z M 3.875 17 L 5.609375 18 L 3.875 19 Z M 3.875 21 L 5.609375 22 L 3.875 23 Z M 3.875 21 "/>
</g>
</svg>
