<svg xmlns="http://www.w3.org/2000/svg" version="1.1" width="320" height="320"><path d="M142.67949192 150L142.67949192 10L160 0L281.24355653 70L298.56406461 80L298.56406461 240L263.92304845 260L246.60254038 250L246.60254038 270L211.96152423 290L194.64101615 280L194.64101615 300L160 320L21.43593539 240L21.43593539 80L56.07695155 60L73.39745962 70L73.39745962 50L108.03847577 30L125.35898385 40L125.35898385 20L142.67949192 10Z" fill="#ADFEB8"/><path d="M142.67949192 150L160 160L160 320L108.03847577 290L108.03847577 190L90.7179677 180L73.39745962 170L73.39745962 210L108.03847577 230L108.03847577 250L56.07695155 220L56.07695155 120L38.75644347 110L38.75644347 230L108.03847577 270L108.03847577 290L21.43593539 240L21.43593539 80L142.67949192 150L142.67949192 170L125.35898385 160L73.39745962 130L73.39745962 150L108.03847577 170L125.35898385 180L125.35898385 280L142.67949192 290ZM142.67949192 90L194.64101615 120L211.96152423 130L211.96152423 290L194.64101615 280L194.64101615 140L177.32050808 130L73.39745962 70L73.39745962 50ZM142.67949192 30L246.60254038 90L263.92304845 100L263.92304845 260L246.60254038 250L246.60254038 110L229.2820323 100L125.35898385 40L125.35898385 20Z" fill="rgba(0,0,0,0.15)"/><path d="M160 160L194.64101615 140L194.64101615 300L160 320ZM211.96152423 150L211.96152423 130L246.60254038 110L246.60254038 270L211.96152423 290ZM263.92304845 140L263.92304845 100L298.56406461 80L298.56406461 240L263.92304845 260ZM125.35898385 180L142.67949192 170L142.67949192 270L125.35898385 280ZM90.7179677 180L108.03847577 190L73.39745962 210L73.39745962 170ZM73.39745962 130L90.7179677 140L73.39745962 150ZM38.75644347 150L38.75644347 110L56.07695155 120L56.07695155 220L38.75644347 230Z" fill="rgba(0,0,0,0.4)"/></svg>